<svg width="32" height="32" viewBox="0 0 32 32" fill="none" xmlns="http://www.w3.org/2000/svg">
<path d="M25.3888 12.2764C25.5222 12.6389 25.4096 13.0432 25.1221 13.3016L23.3176 14.9436C23.3634 15.2895 23.3884 15.6437 23.3884 16.0021C23.3884 16.3605 23.3634 16.7147 23.3176 17.0606L25.1221 18.7026C25.4096 18.961 25.5222 19.3652 25.3888 19.7278C25.2054 20.2238 24.9846 20.6988 24.7303 21.1573L24.5345 21.4948C24.2594 21.9533 23.951 22.3867 23.6135 22.7951C23.3676 23.0951 22.9592 23.1952 22.5924 23.0785L20.2711 22.3408C19.7127 22.7701 19.0959 23.1285 18.4374 23.3994L17.9165 25.779C17.8332 26.1582 17.5414 26.4583 17.158 26.5208C16.5829 26.6167 15.9911 26.6667 15.3868 26.6667C14.7826 26.6667 14.1908 26.6167 13.6157 26.5208C13.2323 26.4583 12.9405 26.1582 12.8572 25.779L12.3363 23.3994C11.6778 23.1285 11.061 22.7701 10.5026 22.3408L8.18544 23.0826C7.8187 23.1993 7.41029 23.0951 7.16441 22.7993C6.82684 22.3908 6.51845 21.9574 6.2434 21.499L6.04753 21.1614C5.79331 20.703 5.57243 20.2279 5.38906 19.732C5.2557 19.3694 5.36823 18.9652 5.65578 18.7068L7.4603 17.0648C7.41446 16.7147 7.38945 16.3605 7.38945 16.0021C7.38945 15.6437 7.41446 15.2895 7.4603 14.9436L5.65578 13.3016C5.36823 13.0432 5.2557 12.6389 5.38906 12.2764C5.57243 11.7804 5.79331 11.3053 6.04753 10.8469L6.2434 10.5094C6.51845 10.0509 6.82684 9.61751 7.16441 9.2091C7.41029 8.90904 7.8187 8.80902 8.18544 8.92571L10.5067 9.66336C11.0652 9.23411 11.682 8.8757 12.3404 8.60482L12.8614 6.22518C12.9447 5.84594 13.2364 5.54589 13.6198 5.48337C14.195 5.38335 14.7867 5.33334 15.391 5.33334C15.9953 5.33334 16.5871 5.38335 17.1622 5.47921C17.5456 5.54172 17.8373 5.84178 17.9207 6.22102L18.4416 8.60065C19.1001 8.87153 19.7169 9.22994 20.2753 9.65919L22.5966 8.92154C22.9633 8.80485 23.3717 8.90904 23.6176 9.20493C23.9552 9.61335 24.2636 10.0468 24.5386 10.5052L24.7345 10.8428C24.9887 11.3012 25.2096 11.7763 25.393 12.2722L25.3888 12.2764ZM15.391 19.3361C16.2752 19.3361 17.1233 18.9848 17.7485 18.3596C18.3737 17.7343 18.725 16.8863 18.725 16.0021C18.725 15.1179 18.3737 14.2699 17.7485 13.6446C17.1233 13.0194 16.2752 12.6681 15.391 12.6681C14.5068 12.6681 13.6588 13.0194 13.0335 13.6446C12.4083 14.2699 12.057 15.1179 12.057 16.0021C12.057 16.8863 12.4083 17.7343 13.0335 18.3596C13.6588 18.9848 14.5068 19.3361 15.391 19.3361Z" fill="white"/>
</svg>
