<svg width="24" height="24" viewBox="0 0 24 24" fill="none" xmlns="http://www.w3.org/2000/svg">
<path d="M19.5265 6.73247C20.1512 6.10776 20.1512 5.09324 19.5265 4.46853C18.9018 3.84382 17.8872 3.84382 17.2625 4.46853L12 9.73606L6.73247 4.47353C6.10776 3.84882 5.09324 3.84882 4.46853 4.47353C3.84382 5.09824 3.84382 6.11276 4.46853 6.73747L9.73606 12L4.47353 17.2675C3.84882 17.8922 3.84882 18.9068 4.47353 19.5315C5.09824 20.1562 6.11276 20.1562 6.73747 19.5315L12 14.2639L17.2675 19.5265C17.8922 20.1512 18.9068 20.1512 19.5315 19.5265C20.1562 18.9018 20.1562 17.8872 19.5315 17.2625L14.2639 12L19.5265 6.73247Z" fill="#9A1A1A"/>
</svg>
